# AST/ASF file generated using VICON BodyLanguage
# -----------------------------------------------
:version 1.10
:name VICON
:units
  mass 1.0
  length 0.45
  angle deg
:documentation
   .ast/.asf automatically generated from VICON data using
   VICON BodyBuilder and BodyLanguage model FoxedUp or BRILLIANT.MOD
:root
   order TX TY TZ RX RY RZ
   axis XYZ
   position 0 0 0  
   orientation 0 0 0 
:bonedata
  begin
     id 1 
     name lhipjoint
     direction 0.570549 -0.739093 0.358072 
     length 2.41801 
     axis 0 0 0  XYZ
  end
  begin
     id 2 
     name lfemur
     direction 0.34202 -0.939693 0  
     length 7.44434  
     axis 0 0 20  XYZ
    dof rx ry rz
    limits (-160.0 20.0)
           (-70.0 70.0)
           (-60.0 70.0)
  end
  begin
     id 3 
     name ltibia
     direction 0.34202 -0.939693 0   
     length 7.60047   
     axis 0 0 20   XYZ
    dof rx
    limits (-10.0 170.0)
  end
  begin
     id 4 
     name lfoot
     direction 0.0909041 -0.249757 0.964032   
     length 2.03437   
     axis -90 7.62852e-016 20   XYZ
    dof rx rz
    limits (-45.0 90.0)
           (-70.0 20.0)
  end
  begin
     id 5 
     name ltoes
     direction 1.53547e-011 -4.2174e-011 1   
     length 1.02054   
     axis -90 7.62852e-016 20   XYZ
    dof rx
    limits (-90.0 20.0)
  end
  begin
     id 6 
     name rhipjoint
     direction -0.558096 -0.746754 0.361784   
     length 2.3932  
     axis 0 0 0  XYZ 
  end
  begin
     id 7 
     name rfemur
     direction -0.34202 -0.939693 0   
     length 7.3886   
     axis 0 0 -20   XYZ
    dof rx ry rz
    limits (-160.0 20.0)
           (-70.0 70.0)
           (-70.0 60.0)
  end
  begin
     id 8 
     name rtibia
     direction -0.34202 -0.939693 0   
     length 7.4839   
     axis 0 0 -20   XYZ
    dof rx
    limits (-10.0 170.0)
 end
 begin
     id 9 
     name rfoot
     direction -0.114619 -0.314914 0.942174   
     length 2.25127  
     axis -90 -7.62852e-016 -20   XYZ
    dof rx rz
    limits (-45.0 90.0)
           (-20.0 70.0)
  end
  begin
     id 10 
     name rtoes
     direction -1.53518e-011 -4.21881e-011 1   
     length 1.11821   
     axis -90 -7.62852e-016 -20   XYZ
    dof rx
    limits (-90.0 20.0)
  end
  begin
     id 11 
     name lowerback
     direction -0.00902269 0.996426 -0.0839821   
     length 2.25052   
     axis 0 0 0   XYZ
    dof rx ry rz
    limits (-20.0 45.0)
           (-30.0 30.0)
           (-30.0 30.0)
  end
  begin
     id 12 
     name upperback
     direction 0.0370973 0.999169 -0.0168941   
     length 2.24876   
     axis 0 0 0   XYZ
    dof rx ry rz
    limits (-20.0 45.0)
           (-30.0 30.0)
           (-30.0 30.0)
  end
  begin
     id 13 
     name thorax
     direction 0.0402726 0.998931 0.0227027   
     length 2.26408   
     axis 0 0 0   XYZ
    dof rx ry rz
    limits (-20.0 45.0)
           (-30.0 30.0)
           (-30.0 30.0)
  end
  begin
     id 14 
     name lowerneck
     direction -0.0733697 0.98508 0.155675   
     length 1.58204   
     axis 0 0 0   XYZ
    dof rx ry rz
    limits (-20.0 45.0)
           (-30.0 30.0)
           (-30.0 30.0)
  end
  begin
     id 15 
     name upperneck
     direction 0.0426554 0.993501 -0.105526   
     length 1.61222   
     axis 0 0 0   XYZ
    dof rx ry rz
    limits (-20.0 45.0)
           (-30.0 30.0)
           (-30.0 30.0)
  end
  begin
     id 16
     name head
     direction 0.020792 0.998384 -0.0528868  
     length 1.61527  
     axis 0 0 0   XYZ
    dof rx ry rz
    limits (-20.0 45.0)
           (-30.0 30.0)
           (-30.0 30.0)
  end
  begin
     id 17 
     name lclavicle
     direction 0.967109 0.155462 -0.201325  
     length 3.59357  
     axis 0 0 0   XYZ
    dof ry rz
    limits (-20.0 10.0)
           (0.0 20.0)
  end
  begin
     id 18 
     name lhumerus
     direction 1 -4.48968e-011 2.38195e-027   
     length 5.38154   
     axis 180 -30 -90   XYZ
    dof rx ry rz
    limits (-60.0 90.0)
           (-90.0 90.0)
           (-90.0 90.0)
  end
  begin
     id 19
     name lradius
     direction 1 -4.48961e-011 4.85371e-027   
     length 3.33312   
     axis 180 -30 -90   XYZ
    dof rx
    limits (-10.0 170.0)
  end
  begin
     id 20
     name lwrist
     direction 1 -4.48961e-011 4.76515e-027   
     length 1.66656   
     axis -3.27502e-015 90 90   XYZ
    dof ry
    limits (-180.0 0.0)
 end
  begin
     id 21 
     name lhand
     direction 1 -4.48951e-011 9.53074e-027   
     length 0.710789   
     axis -6.08098e-015 90 90   XYZ
    dof rx rz
    limits (-90.0 90.0)
           (-45.0 45.0)
  end
  begin
     id 22 
     name lfingers
     direction 1 -4.48953e-011 1.90613e-026   
     length 0.573057   
     axis -1.21619e-014 90 90   XYZ
    dof rx
    limits (0.0 90.0)
  end
  begin
     id 23
     name lthumb
     direction 0.707107 -6.34973e-011 0.707107   
     length 0.822798   
     axis -90 45 -9.86923e-015   XYZ
    dof rx rz
    limits (-45.0 45.0)
           (-45.0 45.0)
  end
  begin
     id 24 
     name rclavicle
     direction -0.9585 0.265289 -0.104398   
     length 3.42039  
     axis 0 0 0   XYZ 
    dof ry rz
    limits (-10.0 20.0)
           (-20.0 0.0)
  end
  begin
     id 25 
     name rhumerus
     direction -1 -4.48977e-011 2.21478e-027  
     length 5.16954   
     axis 180 30 90   XYZ
    dof rx ry rz
    limits (-90.0 60.0)
           (-90.0 90.0)
           (-90.0 90.0)
  end
  begin
     id 26 
     name rradius
     direction -1 -4.48967e-011 5.63677e-027   
     length 3.38287   
     axis 180 30 90   XYZ
    dof rx
    limits (-10.0 170.0)
  end
  begin
     id 27 
     name rwrist
     direction -1 -4.48967e-011 4.76501e-027   
     length 1.69144   
     axis -3.27502e-015 -90 -90   XYZ
    dof ry
    limits (-180.0 0.0)
  end
  begin
     id 28
     name rhand
     direction -1 -4.48902e-011 9.53292e-027   
     length 0.817967   
     axis -6.08098e-015 -90 -90   XYZ
    dof rx rz
    limits (-90.0 90.0)
           (-45.0 45.0)
  end
  begin
     id 29
     name rfingers
     direction -1 -4.49012e-011 1.90561e-026   
     length 0.659466   
     axis -1.21619e-014 -90 -90   XYZ
    dof rx
    limits (0.0 90.0)
  end
  begin
     id 30
     name rthumb
     direction -0.707107 -6.34944e-011 0.707107   
     length 0.946865   
     axis -90 -45 9.86923e-015   XYZ
    dof rx rz
    limits (-45.0 45.0)
           (-45.0 45.0)
  end
:hierarchy
  begin
    root lhipjoint rhipjoint lowerback
    lhipjoint lfemur
    lfemur ltibia
    ltibia lfoot
    lfoot ltoes
    rhipjoint rfemur
    rfemur rtibia
    rtibia rfoot
    rfoot rtoes
    lowerback upperback
    upperback thorax
    thorax lowerneck lclavicle rclavicle
    lowerneck upperneck
    upperneck head
    lclavicle lhumerus
    lhumerus lradius
    lradius lwrist
    lwrist lhand lthumb
    lhand lfingers
    rclavicle rhumerus
    rhumerus rradius
    rradius rwrist
    rwrist rhand rthumb
    rhand rfingers
  end

#!OML:ASF F:\twosubjects\two\wednesday\Session 1\Justin1.ASF
:FULLY-SPECIFIED
:DEGREES
1004
root 8.44877 16.2976 -15.354 -0.211139 13.0189 -9.13274
lowerback 15.467 -3.76659 -0.353401
upperback 1.88788 -4.31551 10.2508
thorax -5.79511 -2.01677 12.3756
lowerneck -19.8038 -1.81629 -9.95749
upperneck 14.1132 -0.169061 2.75707
head 7.61587 -0.359005 2.50362
rclavicle 6.44062e-014 -1.74931e-014
rhumerus -31.5027 -0.335426 -71.0915
rradius 123.641
rwrist -23.6238
rhand -19.0455 44.76
rfingers 7.12502
rthumb 7.26127 14.9046
lclavicle 6.44062e-014 -1.74931e-014
lhumerus -5.22158 1.51543 77.5053
lradius 98.7081
lwrist 12.6337
lhand -12.0541 23.6065
lfingers 7.12502
lthumb 14.0049 53.1147
rfemur -23.0579 -16.5683 27.5639
rtibia 50.3881
rfoot -24.9127 -10.493
rtoes -16.8991
lfemur -31.7081 0.257206 -2.66745
ltibia 55.1193
lfoot -25.8839 -8.64833
ltoes -19.0138
1005
root 8.48271 16.2543 -15.3806 -0.113015 12.1965 -9.1416
lowerback 15.9305 -3.48683 -0.0134233
upperback 1.83835 -3.85503 10.1553
thorax -6.23224 -1.77265 12.0289
lowerneck -19.6803 -1.88482 -9.78497
upperneck 14.2047 -0.352983 2.91238
head 7.63643 -0.424444 2.50695
rclavicle -4.05521e-014 1.04958e-013
rhumerus -31.2551 -0.305905 -70.2725
rradius 123.251
rwrist -24.0074
rhand -18.6383 44.3836
rfingers 7.12502
rthumb 7.65425 14.5421
lclavicle -4.05521e-014 1.04958e-013
lhumerus -6.18883 0.928992 77.6374
lradius 99.3499
lwrist 12.2383
lhand -11.629 23.5592
lfingers 7.12502
lthumb 14.4145 53.0387
rfemur -23.7197 -16.5229 27.4768
rtibia 51.2711
rfoot -25.1436 -9.77844
rtoes -16.7943
lfemur -31.8644 0.678837 -2.72995
ltibia 55.6117
lfoot -26.1172 -8.06773
ltoes -20.1304
1006
root 8.52657 16.2146 -15.4061 0.263614 11.2629 -8.41385
lowerback 17.5026 -2.85107 -1.43389
upperback 0.924629 -3.06243 10.843
thorax -8.15283 -1.19146 13.8388
lowerneck -18.5507 -1.93345 -10.5557
upperneck 14.3277 -0.172856 2.0161
head 7.48419 -0.478218 2.35042
rclavicle 4.65156e-014 -6.04305e-014
rhumerus -31.7819 0.91664 -67.3749
rradius 122.855
rwrist -24.7355
rhand -18.451 44.772
rfingers 7.12502
rthumb 7.83504 14.9372
lclavicle 4.65156e-014 -6.04305e-014
lhumerus -8.99882 1.17411 79.8264
lradius 100.282
lwrist 11.4002
lhand -10.9009 23.1613
lfingers 7.12502
lthumb 15.1159 52.5893
rfemur -24.5374 -16.5727 26.6175
rtibia 52.1896
rfoot -25.2367 -9.14871
rtoes -17.6376
lfemur -32.0743 1.02354 -3.64881
ltibia 56.1491
lfoot -26.2969 -7.27317
ltoes -20.6901
1007
root 8.57819 16.1807 -15.4319 0.594153 10.386 -7.41683
lowerback 16.3084 -2.78908 -0.726765
upperback 1.84913 -3.07934 9.53723
thorax -6.58123 -1.36185 11.6128
lowerneck -18.5911 -1.99384 -9.56693
upperneck 13.2246 -0.645301 2.6903
head 7.14716 -0.553517 2.35363
rclavicle 2.50469e-014 5.56597e-014
rhumerus -30.0424 -0.194169 -68.2793
rradius 121.976
rwrist -24.8858
rhand -18.8964 45.0163
rfingers 7.12502
rthumb 7.40518 15.1659
lclavicle 2.50469e-014 5.56597e-014
lhumerus -8.66954 0.415974 78.3377
lradius 101.139
lwrist 11.2812
lhand -10.4892 22.8223
lfingers 7.12502
lthumb 15.5125 52.22
rfemur -25.2299 -16.7191 25.3845
rtibia 53.0642
rfoot -25.3315 -8.24302
rtoes -17.1566
lfemur -32.1729 1.17387 -4.90099
ltibia 56.7211
lfoot -26.513 -6.25454
ltoes -21.1925
1008
root 8.62611 16.1381 -15.4568 0.626973 9.24542 -7.22743
lowerback 16.4573 -2.47375 -0.143281
upperback 2.09422 -2.59591 9.09263
thorax -6.54271 -1.15095 10.6349
lowerneck -19.0547 -2.13547 -9.37311
upperneck 13.4746 -0.90703 3.07874
head 7.32252 -0.635125 2.42355
rclavicle 4.65156e-014 7.95139e-015
rhumerus -29.2011 -0.497397 -67.7069
rradius 121.188
rwrist -25.4029
rhand -19.197 44.5851
rfingers 7.12502
rthumb 7.11497 14.7247
lclavicle 4.65156e-014 7.95139e-015
lhumerus -9.77099 -0.148089 78.1183
lradius 102.234
lwrist 11.2253
lhand -10.5165 22.7829
lfingers 7.12502
lthumb 15.4862 52.1827
rfemur -25.743 -16.3032 25.0293
rtibia 53.8375
rfoot -25.3877 -7.30586
rtoes -15.0149
lfemur -32.1051 1.76644 -5.22853
ltibia 57.3182
lfoot -26.8655 -5.24098
ltoes -22.7458
1009
root 8.67638 16.0961 -15.4791 0.845959 7.63168 -7.15898
lowerback 16.5624 -1.98952 0.366352
upperback 2.23569 -1.88682 8.80936
thorax -6.60262 -0.819018 9.84985
lowerneck -19.351 -2.26146 -9.13146
upperneck 13.721 -1.10536 3.03601
head 7.46446 -0.724906 2.3487
rclavicle -9.14409e-015 -7.95139e-014
rhumerus -28.2926 -0.639921 -66.835
rradius 120.341
rwrist -25.7405
rhand -18.9619 44.4894
rfingers 7.12502
rthumb 7.34197 14.6368
lclavicle -9.14409e-015 -7.95139e-014
lhumerus -11.306 -0.233934 78.4294
lradius 103.253
lwrist 10.904
lhand -10.31 22.5553
lfingers 7.12502
lthumb 15.6851 51.9395
rfemur -26.5172 -15.2873 24.9128
rtibia 54.5544
rfoot -25.3816 -6.66122
rtoes -13.7278
lfemur -32.1472 2.86009 -5.40349
ltibia 57.8764
lfoot -27.191 -4.33974
ltoes -23.962
1010
root 8.75117 16.0713 -15.5069 1.31494 6.05517 -6.33461
lowerback 16.7189 -1.55526 0.346072
upperback 2.16779 -1.34121 8.31003
thorax -6.86363 -0.548493 9.18386
lowerneck -19.8527 -2.30796 -10.0363
upperneck 14.5208 -1.06951 4.14315
head 7.82322 -0.662007 2.87952
rclavicle -3.18055e-015 2.70347e-014
rhumerus -27.2478 -0.45896 -65.8947
rradius 119.353
rwrist -26.2209
rhand -19.6331 42.9474
rfingers 7.12502
rthumb 6.69403 13.0732
lclavicle -3.18055e-015 2.70347e-014
lhumerus -13.1921 0.111084 78.8686
lradius 104.234
lwrist 10.3529
lhand -9.68497 22.0876
lfingers 7.12502
lthumb 16.287 51.4236
rfemur -27.4972 -14.6422 23.8775
rtibia 55.2918
rfoot -25.3216 -5.78466
rtoes -13.6407
lfemur -32.3379 3.5811 -6.49929
ltibia 58.3651
lfoot -27.2711 -3.84856
ltoes -22.6185
1011
root 8.83948 16.0584 -15.5359 1.71383 4.66527 -4.96068
lowerback 16.9307 -1.23101 0.081583
upperback 2.11148 -1.01463 7.46392
thorax -7.10054 -0.387179 8.31938
lowerneck -19.2518 -2.17414 -9.31832
upperneck 13.926 -1.07633 3.75027
head 7.51696 -0.656189 2.62376
rclavicle -1.51076e-014 -7.95139e-015
rhumerus -26.1614 -0.298702 -65.2286
rradius 118.305
rwrist -26.9233
rhand -20.5548 43.8709
rfingers 7.12502
rthumb 5.80414 13.9703
lclavicle -1.51076e-014 -7.95139e-015
lhumerus -14.8756 0.388394 78.9321
lradius 105.286
lwrist 10.0859
lhand -9.23533 22.0032
lfingers 7.12502
lthumb 16.7199 51.3032
rfemur -28.4117 -14.4294 22.1098
rtibia 56.0708
rfoot -25.2054 -4.61123
rtoes -13.7227
lfemur -32.4056 3.92431 -8.29289
ltibia 58.7642
lfoot -27.2978 -3.35201
ltoes -20.5279
1012
root 8.91137 16.021 -15.5536 1.78951 3.00748 -4.18426
lowerback 17.1559 -0.755105 0.168865
upperback 2.28614 -0.422702 6.82108
thorax -7.12245 -0.114075 7.41127
lowerneck -19.4531 -2.31283 -9.29225
upperneck 13.9709 -1.28919 3.9553
head 7.58096 -0.735328 2.66323
rclavicle 1.59028e-015 5.24792e-014
rhumerus -24.964 -0.413994 -64.4082
rradius 117.252
rwrist -27.79
rhand -22.3535 47.4082
rfingers 7.12502
rthumb 4.06738 17.4673
lclavicle 1.59028e-015 5.24792e-014
lhumerus -16.3332 0.487991 79.0868
lradius 106.428
lwrist 9.97626
lhand -9.08569 22.0096
lfingers 7.12502
lthumb 16.8639 51.2974
rfemur -29.1405 -13.799 21.0337
rtibia 56.8974
rfoot -25.1691 -3.81128
rtoes -14.1775
lfemur -32.13 4.76848 -9.38529
ltibia 59.1412
lfoot -27.623 -1.95239
ltoes -22.8223
1013
root 8.98033 15.9764 -15.569 1.8104 1.2476 -4.11998
lowerback 17.4338 -0.263669 0.861043
upperback 2.44676 0.326371 6.44969
thorax -7.18865 0.223585 6.4219
lowerneck -19.4267 -2.51338 -9.37203
upperneck 13.8587 -1.56336 4.07662
head 7.56003 -0.856458 2.68247
rclavicle -1.19271e-014 1.74931e-014
rhumerus -23.6828 -0.593998 -63.4146
rradius 116.138
rwrist -28.7603
rhand -21.0203 44.1619
rfingers 7.12502
rthumb 5.35479 14.2496
lclavicle -1.19271e-014 1.74931e-014
lhumerus -18.0407 0.635286 79.5336
lradius 107.527
lwrist 9.6774
lhand -8.92335 21.6509
lfingers 7.12502
lthumb 17.0202 50.9253
rfemur -29.8604 -12.8873 20.8176
rtibia 57.6905
rfoot -25.194 -3.34935
rtoes -14.8055
lfemur -31.9055 5.86509 -9.63411
ltibia 59.5648
lfoot -27.989 -0.559241
ltoes -25.8173
1014
root 9.059 15.9483 -15.5847 1.89956 -0.399085 -3.49363
lowerback 17.7765 0.131057 1.13219
upperback 2.45737 0.861186 5.83918
thorax -7.4057 0.467504 5.46906
lowerneck -19.2179 -2.59712 -10.2307
upperneck 13.9524 -1.69114 5.31843
head 7.58252 -0.846463 3.22576
rclavicle 6.75868e-015 -1.90833e-014
rhumerus -22.426 -0.666095 -62.6369
rradius 114.858
rwrist -29.4827
rhand -20.7304 43.5378
rfingers 7.12502
rthumb 5.63461 13.6327
lclavicle 6.75868e-015 -1.90833e-014
lhumerus -19.9628 1.02592 79.8658
lradius 108.498
lwrist 9.40878
lhand -8.81935 21.3549
lfingers 7.12502
lthumb 17.1203 50.6206
rfemur -30.6293 -12.1181 19.93
rtibia 58.4566
rfoot -25.2213 -2.56065
rtoes -14.7121
lfemur -31.8171 6.74312 -10.574
ltibia 60.0332
lfoot -28.2785 0.0179496
ltoes -24.6665
